<svg width="81" height="81" viewBox="0 0 81 81" fill="none" xmlns="http://www.w3.org/2000/svg">
<path d="M36.7054 43.6511L33.7054 46.5678C33.0943 47.1789 32.3304 47.4845 31.4137 47.4845C30.4971 47.4845 29.7054 47.1511 29.0387 46.4845C28.4276 45.8733 28.1221 45.0956 28.1221 44.1511C28.1221 43.2067 28.4276 42.4289 29.0387 41.8178L37.7054 33.1511C38.3721 32.4845 39.1498 32.1511 40.0387 32.1511C40.9276 32.1511 41.7054 32.4845 42.3721 33.1511L51.0387 41.8178C51.6498 42.4289 51.9693 43.1928 51.9971 44.1095C52.0248 45.0261 51.7054 45.8178 51.0387 46.4845C50.4276 47.0956 49.6637 47.415 48.7471 47.4428C47.8304 47.4706 47.0387 47.1789 46.3721 46.5678L43.3721 43.6511V60.8178H61.7054C64.0387 60.8178 66.011 60.0122 67.6221 58.4011C69.2332 56.79 70.0387 54.8178 70.0387 52.4845C70.0387 50.1511 69.2332 48.1789 67.6221 46.5678C66.011 44.9567 64.0387 44.1511 61.7054 44.1511H56.7054V37.4845C56.7054 32.8733 55.0804 28.9428 51.8304 25.6928C48.5804 22.4428 44.6498 20.8178 40.0387 20.8178C35.4276 20.8178 31.4971 22.4428 28.2471 25.6928C24.9971 28.9428 23.3721 32.8733 23.3721 37.4845H21.7054C18.4832 37.4845 15.7332 38.6233 13.4554 40.9011C11.1776 43.1789 10.0387 45.9289 10.0387 49.1511C10.0387 52.3733 11.1776 55.1233 13.4554 57.4011C15.7332 59.6789 18.4832 60.8178 21.7054 60.8178H26.7054C27.6498 60.8178 28.4415 61.1372 29.0804 61.7761C29.7193 62.415 30.0387 63.2067 30.0387 64.1511C30.0387 65.0956 29.7193 65.8872 29.0804 66.5261C28.4415 67.165 27.6498 67.4845 26.7054 67.4845H21.7054C16.6498 67.4845 12.3304 65.7345 8.74707 62.2345C5.16374 58.7345 3.37207 54.4567 3.37207 49.4011C3.37207 45.0678 4.67763 41.2067 7.28874 37.8178C9.89985 34.4289 13.3165 32.2622 17.5387 31.3178C18.9276 26.2067 21.7054 22.0678 25.8721 18.9011C30.0387 15.7345 34.761 14.1511 40.0387 14.1511C46.5387 14.1511 52.0526 16.415 56.5804 20.9428C61.1082 25.4706 63.3721 30.9845 63.3721 37.4845C67.2054 37.9289 70.386 39.5817 72.9137 42.4428C75.4415 45.3039 76.7054 48.6511 76.7054 52.4845C76.7054 56.6511 75.2471 60.1928 72.3304 63.1095C69.4137 66.0261 65.8721 67.4845 61.7054 67.4845H43.3721C41.5387 67.4845 39.9693 66.8317 38.6637 65.5261C37.3582 64.2206 36.7054 62.6511 36.7054 60.8178V43.6511Z" fill="#666666"/>
</svg>
