<svg width="25" height="25" viewBox="0 0 25 25" fill="none" xmlns="http://www.w3.org/2000/svg">
<path d="M5.03906 21.8179C4.48906 21.8179 4.01823 21.622 3.62656 21.2304C3.2349 20.8387 3.03906 20.3679 3.03906 19.8179V5.81787C3.03906 5.26787 3.2349 4.79704 3.62656 4.40537C4.01823 4.0137 4.48906 3.81787 5.03906 3.81787H19.0391C19.5891 3.81787 20.0599 4.0137 20.4516 4.40537C20.8432 4.79704 21.0391 5.26787 21.0391 5.81787V19.8179C21.0391 20.3679 20.8432 20.8387 20.4516 21.2304C20.0599 21.622 19.5891 21.8179 19.0391 21.8179H5.03906ZM5.03906 19.8179H19.0391V5.81787H5.03906V19.8179ZM7.03906 17.8179H17.0391C17.2391 17.8179 17.3891 17.7262 17.4891 17.5429C17.5891 17.3595 17.5724 17.1845 17.4391 17.0179L14.6891 13.3429C14.5891 13.2095 14.4557 13.1429 14.2891 13.1429C14.1224 13.1429 13.9891 13.2095 13.8891 13.3429L11.2891 16.8179L9.43906 14.3429C9.33906 14.2095 9.20573 14.1429 9.03906 14.1429C8.8724 14.1429 8.73906 14.2095 8.63906 14.3429L6.63906 17.0179C6.50573 17.1845 6.48906 17.3595 6.58906 17.5429C6.68906 17.7262 6.83906 17.8179 7.03906 17.8179Z" fill="#4318D1"/>
</svg>
